<svg width="54" height="54" viewBox="0 0 54 54" fill="none" xmlns="http://www.w3.org/2000/svg">
<path d="M27 6.66666C30.8667 6.66666 34 9.79999 34 13.6667C34 17.5333 30.8667 20.6667 27 20.6667C23.1334 20.6667 20 17.5333 20 13.6667C20 9.79999 23.1334 6.66666 27 6.66666ZM27 36.6667C36.9 36.6667 47.3334 41.5333 47.3334 43.6667V47.3333H6.66671V43.6667C6.66671 41.5333 17.1 36.6667 27 36.6667ZM27 0.333328C19.6334 0.333328 13.6667 6.29999 13.6667 13.6667C13.6667 21.0333 19.6334 27 27 27C34.3667 27 40.3334 21.0333 40.3334 13.6667C40.3334 6.29999 34.3667 0.333328 27 0.333328ZM27 30.3333C18.1 30.3333 0.333374 34.8 0.333374 43.6667V53.6667H53.6667V43.6667C53.6667 34.8 35.9 30.3333 27 30.3333Z" fill="#721764"/>
</svg>
